<?xml version="1.0" encoding="UTF-8" standalone="no"?>
<!DOCTYPE svg PUBLIC "-//W3C//DTD SVG 1.1//EN"
 "http://www.w3.org/Graphics/SVG/1.1/DTD/svg11.dtd">
<!-- Generated by graphviz version 7.0.2 (20221119.0110)
 -->
<!-- Title: Core/Inc/chopper.h Pages: 1 -->
<svg width="110pt" height="84pt"
 viewBox="0.00 0.00 110.00 84.00" xmlns="http://www.w3.org/2000/svg" xmlns:xlink="http://www.w3.org/1999/xlink">
<g id="graph0" class="graph" transform="scale(1 1) rotate(0) translate(4 80)">
<title>Core/Inc/chopper.h</title>
<polygon fill="white" stroke="none" points="-4,4 -4,-80 106,-80 106,4 -4,4"/>
<!-- Node1 -->
<g id="node1" class="node">
<title>Node1</title>
<g id="a_node1"><a xlink:title="This file contains all the functions prototypes for the chopper.c file.">
<polygon fill="#bfbfbf" stroke="black" points="4,-56.5 4,-75.5 102,-75.5 102,-56.5 4,-56.5"/>
<text text-anchor="middle" x="53" y="-63.5" font-family="Helvetica,sans-Serif" font-size="10.00">Core/Inc/chopper.h</text>
</a>
</g>
</g>
<!-- Node2 -->
<g id="node2" class="node">
<title>Node2</title>
<g id="a_node2"><a xlink:title=" ">
<polygon fill="white" stroke="#bfbfbf" points="0,-0.5 0,-19.5 46,-19.5 46,-0.5 0,-0.5"/>
<text text-anchor="middle" x="23" y="-7.5" font-family="Helvetica,sans-Serif" font-size="10.00">main.h</text>
</a>
</g>
</g>
<!-- Node1&#45;&gt;Node2 -->
<g id="edge1" class="edge">
<title>Node1&#45;&gt;Node2</title>
<path fill="none" stroke="midnightblue" d="M48.31,-56.56C44.24,-49.23 38.2,-38.35 33.04,-29.07"/>
<polygon fill="midnightblue" stroke="midnightblue" points="36.21,-27.57 28.29,-20.52 30.09,-30.97 36.21,-27.57"/>
</g>
<!-- Node3 -->
<g id="node3" class="node">
<title>Node3</title>
<g id="a_node3"><a xlink:title=" ">
<polygon fill="white" stroke="#bfbfbf" points="64,-0.5 64,-19.5 102,-19.5 102,-0.5 64,-0.5"/>
<text text-anchor="middle" x="83" y="-7.5" font-family="Helvetica,sans-Serif" font-size="10.00">tim.h</text>
</a>
</g>
</g>
<!-- Node1&#45;&gt;Node3 -->
<g id="edge2" class="edge">
<title>Node1&#45;&gt;Node3</title>
<path fill="none" stroke="midnightblue" d="M57.69,-56.56C61.76,-49.23 67.8,-38.35 72.96,-29.07"/>
<polygon fill="midnightblue" stroke="midnightblue" points="75.91,-30.97 77.71,-20.52 69.79,-27.57 75.91,-30.97"/>
</g>
</g>
</svg>
