<?xml version="1.0" encoding="UTF-8" standalone="no"?>
<!DOCTYPE svg PUBLIC "-//W3C//DTD SVG 1.1//EN"
 "http://www.w3.org/Graphics/SVG/1.1/DTD/svg11.dtd">
<!-- Generated by graphviz version 7.0.2 (20221119.0110)
 -->
<!-- Title: Core/Inc/hal_abstraction.h Pages: 1 -->
<svg width="138pt" height="84pt"
 viewBox="0.00 0.00 138.00 84.00" xmlns="http://www.w3.org/2000/svg" xmlns:xlink="http://www.w3.org/1999/xlink">
<g id="graph0" class="graph" transform="scale(1 1) rotate(0) translate(4 80)">
<title>Core/Inc/hal_abstraction.h</title>
<polygon fill="white" stroke="none" points="-4,4 -4,-80 134,-80 134,4 -4,4"/>
<!-- Node1 -->
<g id="node1" class="node">
<title>Node1</title>
<g id="a_node1"><a xlink:title="This file contains all the functions prototypes for the hal_abstraction.c file.">
<polygon fill="#bfbfbf" stroke="black" points="0,-56.5 0,-75.5 130,-75.5 130,-56.5 0,-56.5"/>
<text text-anchor="middle" x="65" y="-63.5" font-family="Helvetica,sans-Serif" font-size="10.00">Core/Inc/hal_abstraction.h</text>
</a>
</g>
</g>
<!-- Node2 -->
<g id="node2" class="node">
<title>Node2</title>
<g id="a_node2"><a xlink:title=" ">
<polygon fill="white" stroke="#bfbfbf" points="10,-0.5 10,-19.5 56,-19.5 56,-0.5 10,-0.5"/>
<text text-anchor="middle" x="33" y="-7.5" font-family="Helvetica,sans-Serif" font-size="10.00">stdio.h</text>
</a>
</g>
</g>
<!-- Node1&#45;&gt;Node2 -->
<g id="edge1" class="edge">
<title>Node1&#45;&gt;Node2</title>
<path fill="none" stroke="midnightblue" d="M60,-56.56C55.65,-49.23 49.21,-38.35 43.71,-29.07"/>
<polygon fill="midnightblue" stroke="midnightblue" points="46.74,-27.32 38.63,-20.5 40.72,-30.89 46.74,-27.32"/>
</g>
<!-- Node3 -->
<g id="node3" class="node">
<title>Node3</title>
<g id="a_node3"><a xlink:title=" ">
<polygon fill="white" stroke="#bfbfbf" points="74.5,-0.5 74.5,-19.5 121.5,-19.5 121.5,-0.5 74.5,-0.5"/>
<text text-anchor="middle" x="98" y="-7.5" font-family="Helvetica,sans-Serif" font-size="10.00">usart.h</text>
</a>
</g>
</g>
<!-- Node1&#45;&gt;Node3 -->
<g id="edge2" class="edge">
<title>Node1&#45;&gt;Node3</title>
<path fill="none" stroke="midnightblue" d="M70.16,-56.56C74.69,-49.15 81.43,-38.12 87.14,-28.76"/>
<polygon fill="midnightblue" stroke="midnightblue" points="89.97,-30.85 92.2,-20.49 84,-27.2 89.97,-30.85"/>
</g>
</g>
</svg>
